<?xml version="1.0" encoding="UTF-8" standalone="no"?>
<!DOCTYPE svg PUBLIC "-//W3C//DTD SVG 1.1//EN"
 "http://www.w3.org/Graphics/SVG/1.1/DTD/svg11.dtd">
<!-- Generated by graphviz version 2.43.0 (0)
 -->
<!-- Title: %3 Pages: 1 -->
<svg width="1299pt" height="238pt"
 viewBox="0.00 0.00 1299.00 237.74" xmlns="http://www.w3.org/2000/svg" xmlns:xlink="http://www.w3.org/1999/xlink">
<g id="graph0" class="graph" transform="scale(1 1) rotate(0) translate(36 201.74)">
<title>%3</title>
<polygon fill="dimgray" stroke="transparent" points="-36,36 -36,-201.74 1263,-201.74 1263,36 -36,36"/>
<text text-anchor="middle" x="613.5" y="-150.54" font-family="Helvetica,sans-Serif" font-size="14.00">Sweep&#39;s Plan &amp; Progress</text>
<!-- start -->
<g id="node1" class="node">
<title>start</title>
</g>
<!-- a0175173&#45;91a8&#45;45e9&#45;8981&#45;98ee9cee443b -->
<g id="node3" class="node">
<title>a0175173&#45;91a8&#45;45e9&#45;8981&#45;98ee9cee443b</title>
<ellipse fill="#0ee832" stroke="black" cx="212.5" cy="-99.87" rx="93.18" ry="26.74"/>
<text text-anchor="middle" x="212.5" y="-103.67" font-family="Helvetica,sans-Serif" font-size="14.00">✓ Create</text>
<text text-anchor="middle" x="212.5" y="-88.67" font-family="Helvetica,sans-Serif" font-size="14.00">gui/constants.py</text>
</g>
<!-- start&#45;&gt;a0175173&#45;91a8&#45;45e9&#45;8981&#45;98ee9cee443b -->
<g id="edge6" class="edge">
<title>start&#45;&gt;a0175173&#45;91a8&#45;45e9&#45;8981&#45;98ee9cee443b</title>
<path fill="none" stroke="black" d="M68.15,-99.87C71.55,-99.87 88.03,-99.87 108.7,-99.87"/>
<polygon fill="black" stroke="black" points="108.81,-103.37 118.81,-99.87 108.81,-96.37 108.81,-103.37"/>
<text text-anchor="middle" x="93.58" y="-106.67" font-family="Helvetica,sans-Serif" font-size="14.00">Start</text>
</g>
<!-- end -->
<g id="node2" class="node">
<title>end</title>
</g>
<!-- aab77d30&#45;1034&#45;425c&#45;9211&#45;56f933d0bd60 -->
<g id="node4" class="node">
<title>aab77d30&#45;1034&#45;425c&#45;9211&#45;56f933d0bd60</title>
<ellipse fill="#0ee832" stroke="black" cx="560.5" cy="-99.87" rx="169" ry="26.74"/>
<text text-anchor="middle" x="560.5" y="-103.67" font-family="Helvetica,sans-Serif" font-size="14.00">✓ Modify</text>
<text text-anchor="middle" x="560.5" y="-88.67" font-family="Helvetica,sans-Serif" font-size="14.00">gui/screens/NewGameScreen.kv</text>
</g>
<!-- a0175173&#45;91a8&#45;45e9&#45;8981&#45;98ee9cee443b&#45;&gt;aab77d30&#45;1034&#45;425c&#45;9211&#45;56f933d0bd60 -->
<g id="edge2" class="edge">
<title>a0175173&#45;91a8&#45;45e9&#45;8981&#45;98ee9cee443b&#45;&gt;aab77d30&#45;1034&#45;425c&#45;9211&#45;56f933d0bd60</title>
<path fill="none" stroke="black" d="M305.96,-99.87C331.12,-99.87 356.28,-99.87 381.45,-99.87"/>
<polygon fill="black" stroke="black" points="381.47,-103.37 391.47,-99.87 381.47,-96.37 381.47,-103.37"/>
</g>
<!-- 115126ea&#45;a03f&#45;43d3&#45;bc5d&#45;6d51037c21b9 -->
<g id="node6" class="node">
<title>115126ea&#45;a03f&#45;43d3&#45;bc5d&#45;6d51037c21b9</title>
<polygon fill="#0ee832" stroke="black" points="325,-36 0,-36 0,0 325,0 325,-36"/>
<text text-anchor="middle" x="162.5" y="-14.3" font-family="Helvetica,sans-Serif" font-size="14.00">✓ Run GitHub Actions for `gui/constants.py`</text>
</g>
<!-- a0175173&#45;91a8&#45;45e9&#45;8981&#45;98ee9cee443b&#45;&gt;115126ea&#45;a03f&#45;43d3&#45;bc5d&#45;6d51037c21b9 -->
<g id="edge1" class="edge">
<title>a0175173&#45;91a8&#45;45e9&#45;8981&#45;98ee9cee443b&#45;&gt;115126ea&#45;a03f&#45;43d3&#45;bc5d&#45;6d51037c21b9</title>
<path fill="none" stroke="black" stroke-dasharray="5,2" d="M196.4,-73.16C190.75,-64.13 184.4,-53.98 178.74,-44.94"/>
<polygon fill="black" stroke="black" points="181.63,-42.96 173.35,-36.34 175.69,-46.67 181.63,-42.96"/>
</g>
<!-- 4572b841&#45;3a95&#45;4c20&#45;a0d3&#45;93da70c8f8c5 -->
<g id="node5" class="node">
<title>4572b841&#45;3a95&#45;4c20&#45;a0d3&#45;93da70c8f8c5</title>
<ellipse fill="white" stroke="black" cx="973.5" cy="-99.87" rx="169.91" ry="26.74"/>
<text text-anchor="middle" x="973.5" y="-103.67" font-family="Helvetica,sans-Serif" font-size="14.00">▶ Modify</text>
<text text-anchor="middle" x="973.5" y="-88.67" font-family="Helvetica,sans-Serif" font-size="14.00">gui/screens/NewGameScreen.py</text>
</g>
<!-- aab77d30&#45;1034&#45;425c&#45;9211&#45;56f933d0bd60&#45;&gt;4572b841&#45;3a95&#45;4c20&#45;a0d3&#45;93da70c8f8c5 -->
<g id="edge4" class="edge">
<title>aab77d30&#45;1034&#45;425c&#45;9211&#45;56f933d0bd60&#45;&gt;4572b841&#45;3a95&#45;4c20&#45;a0d3&#45;93da70c8f8c5</title>
<path fill="none" stroke="black" d="M729.89,-99.87C751.12,-99.87 772.34,-99.87 793.56,-99.87"/>
<polygon fill="black" stroke="black" points="793.64,-103.37 803.64,-99.87 793.64,-96.37 793.64,-103.37"/>
</g>
<!-- 69fc54f6&#45;ca38&#45;4f3b&#45;a77b&#45;e90512aacb16 -->
<g id="node7" class="node">
<title>69fc54f6&#45;ca38&#45;4f3b&#45;a77b&#45;e90512aacb16</title>
<polygon fill="yellow" stroke="black" points="777.5,-36 343.5,-36 343.5,0 777.5,0 777.5,-36"/>
<text text-anchor="middle" x="560.5" y="-14.3" font-family="Helvetica,sans-Serif" font-size="14.00">⋯ Run GitHub Actions for `gui/screens/NewGameScreen.kv`</text>
</g>
<!-- aab77d30&#45;1034&#45;425c&#45;9211&#45;56f933d0bd60&#45;&gt;69fc54f6&#45;ca38&#45;4f3b&#45;a77b&#45;e90512aacb16 -->
<g id="edge3" class="edge">
<title>aab77d30&#45;1034&#45;425c&#45;9211&#45;56f933d0bd60&#45;&gt;69fc54f6&#45;ca38&#45;4f3b&#45;a77b&#45;e90512aacb16</title>
<path fill="none" stroke="black" stroke-dasharray="5,2" d="M560.5,-72.72C560.5,-64.27 560.5,-54.89 560.5,-46.36"/>
<polygon fill="black" stroke="black" points="564,-46.15 560.5,-36.15 557,-46.15 564,-46.15"/>
</g>
<!-- 4572b841&#45;3a95&#45;4c20&#45;a0d3&#45;93da70c8f8c5&#45;&gt;end -->
<g id="edge7" class="edge">
<title>4572b841&#45;3a95&#45;4c20&#45;a0d3&#45;93da70c8f8c5&#45;&gt;end</title>
<path fill="none" stroke="black" d="M1143.38,-99.87C1163.41,-99.87 1180.38,-99.87 1190.72,-99.87"/>
<polygon fill="black" stroke="black" points="1190.86,-103.37 1200.86,-99.87 1190.86,-96.37 1190.86,-103.37"/>
<text text-anchor="middle" x="1172.1" y="-106.67" font-family="Helvetica,sans-Serif" font-size="14.00">Finish</text>
</g>
<!-- 139e58c6&#45;3ef6&#45;4c5c&#45;84c5&#45;8468ba58e77f -->
<g id="node8" class="node">
<title>139e58c6&#45;3ef6&#45;4c5c&#45;84c5&#45;8468ba58e77f</title>
<polygon fill="white" stroke="black" points="1227,-36 796,-36 796,0 1227,0 1227,-36"/>
<text text-anchor="middle" x="1011.5" y="-14.3" font-family="Helvetica,sans-Serif" font-size="14.00">▶ Run GitHub Actions for `gui/screens/NewGameScreen.py`</text>
</g>
<!-- 4572b841&#45;3a95&#45;4c20&#45;a0d3&#45;93da70c8f8c5&#45;&gt;139e58c6&#45;3ef6&#45;4c5c&#45;84c5&#45;8468ba58e77f -->
<g id="edge5" class="edge">
<title>4572b841&#45;3a95&#45;4c20&#45;a0d3&#45;93da70c8f8c5&#45;&gt;139e58c6&#45;3ef6&#45;4c5c&#45;84c5&#45;8468ba58e77f</title>
<path fill="none" stroke="black" stroke-dasharray="5,2" d="M985.94,-72.72C990.14,-63.9 994.82,-54.05 999.02,-45.23"/>
<polygon fill="black" stroke="black" points="1002.21,-46.68 1003.34,-36.15 995.89,-43.67 1002.21,-46.68"/>
</g>
</g>
</svg>
